<svg width="230" height="230" viewBox="0 0 230 230" fill="none" xmlns="http://www.w3.org/2000/svg">
<rect width="230" height="230" rx="18" fill="#F7DF1E"/>
<path d="M59.9773 122.182H76.5114L92.4318 152.25H93.1136L109.034 122.182H125.568L100.102 167.318V192H85.4432V167.318L59.9773 122.182ZM175.707 144.75C175.23 143.091 174.56 141.625 173.696 140.352C172.832 139.057 171.776 137.966 170.526 137.08C169.298 136.17 167.889 135.477 166.298 135C164.73 134.523 162.991 134.284 161.082 134.284C157.514 134.284 154.378 135.17 151.673 136.943C148.991 138.716 146.901 141.295 145.401 144.682C143.901 148.045 143.151 152.159 143.151 157.023C143.151 161.886 143.889 166.023 145.366 169.432C146.844 172.841 148.935 175.443 151.639 177.239C154.344 179.011 157.537 179.898 161.219 179.898C164.56 179.898 167.412 179.307 169.776 178.125C172.162 176.92 173.98 175.227 175.23 173.045C176.503 170.864 177.139 168.284 177.139 165.307L180.139 165.75H162.139V154.636H191.355V163.432C191.355 169.568 190.06 174.841 187.469 179.25C184.878 183.636 181.31 187.023 176.764 189.409C172.219 191.773 167.014 192.955 161.151 192.955C154.605 192.955 148.855 191.511 143.901 188.625C138.946 185.716 135.082 181.591 132.31 176.25C129.56 170.886 128.185 164.523 128.185 157.159C128.185 151.5 129.003 146.455 130.639 142.023C132.298 137.568 134.616 133.795 137.594 130.705C140.571 127.614 144.037 125.261 147.991 123.648C151.946 122.034 156.23 121.227 160.844 121.227C164.798 121.227 168.48 121.807 171.889 122.966C175.298 124.102 178.321 125.716 180.957 127.807C183.616 129.898 185.787 132.386 187.469 135.273C189.151 138.136 190.23 141.295 190.707 144.75H175.707Z" fill="black"/>
</svg>
