<svg width="230" height="230" viewBox="0 0 230 230" fill="none" xmlns="http://www.w3.org/2000/svg">
<g clip-path="url(#clip0_23_3)">
<rect width="230" height="230" rx="38" fill="#02589B"/>
<rect x="-39" y="64" width="180" height="173" rx="28" fill="#40C4FF"/>
<rect x="86" y="87" width="180" height="127" rx="28" fill="#02589B"/>
<rect x="33" y="-40" width="180" height="127" rx="28" fill="#038EFB"/>
<path d="M89.656 135.248V159.184C89.656 168.912 92.984 171.6 106.296 171.6C108.984 171.6 128.056 171.6 130.872 171.6C141.88 171.6 144.696 167.632 145.848 151.504C143.288 150.992 139.448 149.584 137.4 148.048C136.76 161.104 135.864 163.152 130.104 163.152C125.88 163.152 110.008 163.152 106.936 163.152C100.28 163.152 99 162.512 99 159.056V135.248H89.656ZM101.304 131.92C108.856 136.912 117.304 144.72 121.272 150.096L128.184 144.72C124.088 139.216 115.384 131.92 107.832 127.056L101.304 131.92ZM142.264 137.936C151.864 147.152 161.976 159.952 165.944 168.656L174.52 163.536C170.04 154.832 159.672 142.288 150.2 133.328L142.264 137.936ZM142.904 89.68C150.968 98 159.544 109.648 163 117.2L171.448 112.848C167.864 104.912 159.032 93.776 150.84 85.712L142.904 89.68ZM73.784 135.376C70.712 145.744 64.696 156.752 55.608 163.152L63.288 168.4C72.888 161.232 78.392 149.328 81.976 138.448L73.784 135.376ZM109.88 54.48V73.552H119.48V54.48H109.88ZM59.192 68.56V77.392H171.064V68.56H59.192ZM124.984 73.168V116.816C124.984 118.224 124.472 118.608 122.936 118.736C121.272 118.864 116.024 118.864 110.136 118.736C111.416 121.04 112.696 124.496 113.208 127.056C121.272 127.056 126.52 126.928 129.976 125.52C133.304 124.112 134.2 121.68 134.2 117.072V73.168H124.984ZM97.848 73.68V83.664C97.848 95.824 96.184 111.696 77.496 123.856C79.928 125.136 83.256 128.08 84.92 130C104.888 116.56 106.936 98.384 106.936 83.792V73.68H97.848ZM76.344 85.712C72.248 95.056 64.568 104.4 56.76 109.648C58.808 111.056 61.624 113.744 63.032 115.408C71.48 109.52 79.928 99.664 84.792 89.04L76.344 85.712Z" fill="white"/>
</g>
<defs>
<clipPath id="clip0_23_3">
<rect width="230" height="230" rx="38" fill="white"/>
</clipPath>
</defs>
</svg>
